<svg xmlns="http://www.w3.org/2000/svg" viewBox="0 0 256 256" width="256" height="256">
  <defs>
    <linearGradient id="g1" x1="0%" y1="0%" x2="100%" y2="100%">
      <stop offset="0%" style="stop-color:#6366F1"/>
      <stop offset="40%" style="stop-color:#8B5CF6"/>
      <stop offset="100%" style="stop-color:#EC4899"/>
    </linearGradient>
    <linearGradient id="g2" x1="100%" y1="0%" x2="0%" y2="100%">
      <stop offset="0%" style="stop-color:#3B82F6"/>
      <stop offset="100%" style="stop-color:#8B5CF6"/>
    </linearGradient>
  </defs>
  <rect width="256" height="256" rx="56" fill="#FAFBFF"/>
  
  <!-- C arcs -->
  <path d="M 128 48 A 62 62 0 0 0 66 110" stroke="url(#g1)" stroke-width="22" stroke-linecap="round" fill="none"/>
  <path d="M 66 110 A 62 62 0 0 0 128 172" stroke="url(#g2)" stroke-width="22" stroke-linecap="round" fill="none"/>

  <!-- Memory dots -->
  <circle cx="145" cy="52" r="9" fill="#6366F1" opacity="0.9"/>
  <circle cx="165" cy="65" r="5.5" fill="#8B5CF6" opacity="0.7"/>
  <circle cx="178" cy="108" r="7.5" fill="#3B82F6" opacity="0.8"/>
  <circle cx="190" cy="130" r="5" fill="#60A5FA" opacity="0.6"/>
  <circle cx="185" cy="155" r="6" fill="#818CF8" opacity="0.7"/>
  <circle cx="145" cy="168" r="9" fill="#8B5CF6" opacity="0.9"/>
  <circle cx="165" cy="156" r="5.5" fill="#6366F1" opacity="0.7"/>

  <!-- Subtle connections -->
  <g stroke="#C7D2FE" stroke-width="1" opacity="0.3">
    <line x1="145" y1="52" x2="165" y2="65"/>
    <line x1="165" y1="65" x2="178" y2="108"/>
    <line x1="178" y1="108" x2="190" y2="130"/>
    <line x1="190" y1="130" x2="185" y2="155"/>
    <line x1="185" y1="155" x2="165" y2="156"/>
    <line x1="165" y1="156" x2="145" y2="168"/>
    <line x1="145" y1="52" x2="178" y2="108"/>
    <line x1="178" y1="108" x2="145" y2="168"/>
  </g>

  <!-- Subtle text -->
  <text x="128" y="222" text-anchor="middle" font-family="'SF Pro Display', 'Inter', 'Segoe UI', system-ui, sans-serif" font-size="28" font-weight="700" letter-spacing="4" fill="#4F46E5">CORTEX</text>
</svg>
